<?xml version="1.0" encoding="UTF-8"?>
<svg xmlns="http://www.w3.org/2000/svg" version="1.1" width="700" height="700" viewBox="0 0 700 700"><rect x="0" y="0" width="700" height="700" fill="#ffffff"/><g transform="scale(20)"><g transform="translate(1,1)"><path fill-rule="evenodd" d="M10 0L10 2L11 2L11 0ZM12 0L12 1L13 1L13 0ZM16 0L16 1L15 1L15 2L14 2L14 3L13 3L13 2L12 2L12 4L16 4L16 5L11 5L11 6L10 6L10 4L11 4L11 3L8 3L8 4L9 4L9 5L8 5L8 7L9 7L9 8L6 8L6 9L7 9L7 10L5 10L5 11L7 11L7 12L5 12L5 13L7 13L7 12L9 12L9 13L8 13L8 14L4 14L4 12L2 12L2 11L4 11L4 10L3 10L3 9L5 9L5 8L0 8L0 10L1 10L1 12L0 12L0 19L2 19L2 20L0 20L0 25L1 25L1 21L2 21L2 25L3 25L3 24L6 24L6 25L7 25L7 24L8 24L8 27L9 27L9 25L10 25L10 24L11 24L11 25L12 25L12 26L13 26L13 27L12 27L12 29L13 29L13 28L14 28L14 29L19 29L19 30L21 30L21 29L19 29L19 28L17 28L17 26L14 26L14 25L12 25L12 23L13 23L13 22L15 22L15 23L14 23L14 24L15 24L15 25L19 25L19 26L18 26L18 27L19 27L19 26L20 26L20 27L21 27L21 28L22 28L22 29L23 29L23 27L24 27L24 31L23 31L23 30L22 30L22 31L20 31L20 32L22 32L22 33L23 33L23 32L24 32L24 33L25 33L25 32L24 32L24 31L27 31L27 32L28 32L28 33L29 33L29 31L30 31L30 32L31 32L31 33L32 33L32 32L31 32L31 31L32 31L32 30L31 30L31 29L30 29L30 28L32 28L32 26L33 26L33 24L32 24L32 26L31 26L31 25L30 25L30 24L31 24L31 23L32 23L32 22L33 22L33 21L32 21L32 20L31 20L31 19L32 19L32 18L33 18L33 17L32 17L32 16L31 16L31 15L32 15L32 14L33 14L33 13L31 13L31 15L30 15L30 13L29 13L29 10L28 10L28 8L27 8L27 9L26 9L26 8L25 8L25 10L27 10L27 11L28 11L28 12L27 12L27 13L25 13L25 12L26 12L26 11L25 11L25 12L24 12L24 13L23 13L23 10L24 10L24 9L23 9L23 10L20 10L20 9L21 9L21 8L23 8L23 5L24 5L24 7L25 7L25 5L24 5L24 4L25 4L25 2L24 2L24 3L22 3L22 2L23 2L23 1L24 1L24 0L23 0L23 1L22 1L22 2L21 2L21 1L20 1L20 0L19 0L19 1L20 1L20 2L19 2L19 3L17 3L17 4L16 4L16 3L15 3L15 2L18 2L18 1L17 1L17 0ZM8 1L8 2L9 2L9 1ZM19 3L19 4L17 4L17 7L16 7L16 6L15 6L15 7L14 7L14 6L13 6L13 7L12 7L12 6L11 6L11 7L12 7L12 9L11 9L11 8L10 8L10 9L9 9L9 10L7 10L7 11L9 11L9 12L11 12L11 13L9 13L9 14L8 14L8 16L9 16L9 17L8 17L8 18L7 18L7 17L6 17L6 16L7 16L7 15L5 15L5 16L3 16L3 15L2 15L2 16L1 16L1 18L2 18L2 16L3 16L3 19L4 19L4 22L5 22L5 23L6 23L6 24L7 24L7 23L8 23L8 24L9 24L9 23L10 23L10 21L11 21L11 22L13 22L13 21L12 21L12 19L13 19L13 20L14 20L14 21L15 21L15 22L17 22L17 24L18 24L18 22L19 22L19 23L21 23L21 22L19 22L19 21L22 21L22 20L25 20L25 21L24 21L24 22L23 22L23 23L22 23L22 24L20 24L20 25L22 25L22 26L24 26L24 25L22 25L22 24L23 24L23 23L24 23L24 24L27 24L27 22L25 22L25 21L27 21L27 20L28 20L28 19L26 19L26 18L25 18L25 17L28 17L28 18L29 18L29 17L30 17L30 19L29 19L29 20L30 20L30 21L28 21L28 24L30 24L30 23L29 23L29 22L30 22L30 21L31 21L31 20L30 20L30 19L31 19L31 16L30 16L30 15L29 15L29 13L28 13L28 16L26 16L26 14L25 14L25 13L24 13L24 14L23 14L23 13L22 13L22 12L20 12L20 14L19 14L19 13L17 13L17 12L19 12L19 11L20 11L20 10L19 10L19 9L20 9L20 8L21 8L21 7L22 7L22 5L23 5L23 4L22 4L22 3L21 3L21 4L20 4L20 3ZM19 4L19 5L20 5L20 7L19 7L19 6L18 6L18 8L16 8L16 7L15 7L15 9L14 9L14 8L13 8L13 9L12 9L12 10L15 10L15 11L14 11L14 12L13 12L13 11L12 11L12 13L16 13L16 14L15 14L15 15L16 15L16 16L13 16L13 17L12 17L12 15L14 15L14 14L11 14L11 16L10 16L10 17L9 17L9 19L8 19L8 21L7 21L7 20L5 20L5 22L6 22L6 23L7 23L7 22L8 22L8 21L10 21L10 20L11 20L11 19L10 19L10 17L12 17L12 18L13 18L13 19L14 19L14 20L15 20L15 21L17 21L17 22L18 22L18 21L19 21L19 20L20 20L20 19L21 19L21 20L22 20L22 19L23 19L23 18L24 18L24 17L25 17L25 16L24 16L24 17L23 17L23 15L22 15L22 13L21 13L21 14L20 14L20 16L22 16L22 17L19 17L19 15L18 15L18 16L17 16L17 13L16 13L16 12L15 12L15 11L16 11L16 10L15 10L15 9L17 9L17 10L18 10L18 11L19 11L19 10L18 10L18 9L19 9L19 8L20 8L20 7L21 7L21 5L22 5L22 4L21 4L21 5L20 5L20 4ZM9 6L9 7L10 7L10 6ZM29 8L29 9L30 9L30 8ZM31 8L31 10L33 10L33 9L32 9L32 8ZM10 9L10 11L11 11L11 9ZM30 11L30 12L31 12L31 11ZM1 12L1 13L2 13L2 12ZM9 14L9 15L10 15L10 14ZM28 16L28 17L29 17L29 16ZM5 17L5 18L4 18L4 19L5 19L5 18L6 18L6 19L7 19L7 18L6 18L6 17ZM13 17L13 18L14 18L14 19L15 19L15 18L17 18L17 19L16 19L16 20L18 20L18 19L20 19L20 18L19 18L19 17ZM9 19L9 20L10 20L10 19ZM2 20L2 21L3 21L3 20ZM6 21L6 22L7 22L7 21ZM25 25L25 28L28 28L28 25ZM29 25L29 28L30 28L30 27L31 27L31 26L30 26L30 25ZM10 26L10 27L11 27L11 26ZM26 26L26 27L27 27L27 26ZM14 27L14 28L16 28L16 27ZM8 28L8 33L9 33L9 31L11 31L11 33L12 33L12 31L13 31L13 30L9 30L9 29L11 29L11 28ZM25 29L25 30L28 30L28 31L29 31L29 30L28 30L28 29ZM15 30L15 31L14 31L14 32L15 32L15 33L19 33L19 31L18 31L18 30L17 30L17 31L16 31L16 30ZM30 30L30 31L31 31L31 30ZM15 31L15 32L16 32L16 31ZM17 31L17 32L18 32L18 31ZM22 31L22 32L23 32L23 31ZM0 0L0 7L7 7L7 0ZM1 1L1 6L6 6L6 1ZM2 2L2 5L5 5L5 2ZM26 0L26 7L33 7L33 0ZM27 1L27 6L32 6L32 1ZM28 2L28 5L31 5L31 2ZM0 26L0 33L7 33L7 26ZM1 27L1 32L6 32L6 27ZM2 28L2 31L5 31L5 28Z" fill="#000000"/></g></g></svg>
