<?xml version="1.0" encoding="UTF-8"?>
<svg xmlns="http://www.w3.org/2000/svg" version="1.1" width="700" height="700" viewBox="0 0 700 700"><rect x="0" y="0" width="700" height="700" fill="#ffffff"/><g transform="scale(20)"><g transform="translate(1,1)"><path fill-rule="evenodd" d="M10 0L10 2L11 2L11 0ZM12 0L12 1L13 1L13 2L12 2L12 4L14 4L14 5L11 5L11 6L10 6L10 4L11 4L11 3L8 3L8 4L9 4L9 5L8 5L8 7L9 7L9 8L6 8L6 9L10 9L10 11L11 11L11 9L12 9L12 10L13 10L13 11L12 11L12 13L14 13L14 14L11 14L11 16L9 16L9 17L8 17L8 14L9 14L9 13L11 13L11 12L9 12L9 11L8 11L8 12L9 12L9 13L8 13L8 14L6 14L6 13L7 13L7 12L5 12L5 11L7 11L7 10L5 10L5 11L2 11L2 13L1 13L1 12L0 12L0 13L1 13L1 14L0 14L0 16L1 16L1 17L0 17L0 18L1 18L1 19L0 19L0 25L1 25L1 22L2 22L2 25L4 25L4 24L3 24L3 22L4 22L4 23L5 23L5 24L6 24L6 25L7 25L7 24L8 24L8 27L9 27L9 21L7 21L7 20L6 20L6 19L7 19L7 18L9 18L9 17L10 17L10 21L11 21L11 17L12 17L12 18L13 18L13 19L12 19L12 21L14 21L14 22L15 22L15 23L14 23L14 24L15 24L15 25L19 25L19 26L20 26L20 27L21 27L21 28L22 28L22 29L23 29L23 27L24 27L24 31L23 31L23 30L22 30L22 31L20 31L20 32L22 32L22 33L23 33L23 32L24 32L24 33L25 33L25 32L24 32L24 31L27 31L27 32L28 32L28 33L29 33L29 31L30 31L30 32L31 32L31 33L32 33L32 32L31 32L31 31L32 31L32 30L31 30L31 29L30 29L30 28L32 28L32 26L33 26L33 24L32 24L32 26L31 26L31 25L30 25L30 24L31 24L31 23L32 23L32 22L33 22L33 21L32 21L32 20L31 20L31 19L32 19L32 18L33 18L33 17L32 17L32 16L31 16L31 15L32 15L32 14L33 14L33 13L31 13L31 15L30 15L30 13L29 13L29 10L28 10L28 8L27 8L27 9L26 9L26 8L25 8L25 10L27 10L27 11L28 11L28 12L27 12L27 13L25 13L25 12L26 12L26 11L25 11L25 12L24 12L24 13L23 13L23 10L24 10L24 9L23 9L23 10L21 10L21 9L19 9L19 8L17 8L17 9L16 9L16 7L17 7L17 5L18 5L18 7L19 7L19 5L20 5L20 8L23 8L23 5L24 5L24 7L25 7L25 5L24 5L24 4L25 4L25 2L24 2L24 3L22 3L22 2L23 2L23 1L24 1L24 0L23 0L23 1L22 1L22 2L19 2L19 1L20 1L20 0L19 0L19 1L18 1L18 2L19 2L19 3L17 3L17 4L16 4L16 3L15 3L15 2L16 2L16 1L15 1L15 0L14 0L14 1L13 1L13 0ZM8 1L8 2L9 2L9 1ZM13 2L13 3L14 3L14 4L15 4L15 5L16 5L16 4L15 4L15 3L14 3L14 2ZM19 3L19 4L18 4L18 5L19 5L19 4L22 4L22 5L21 5L21 7L22 7L22 5L23 5L23 4L22 4L22 3ZM9 6L9 7L10 7L10 6ZM11 6L11 7L12 7L12 9L13 9L13 10L14 10L14 11L13 11L13 12L14 12L14 13L15 13L15 14L14 14L14 15L12 15L12 17L13 17L13 18L14 18L14 19L13 19L13 20L14 20L14 21L15 21L15 22L16 22L16 23L15 23L15 24L19 24L19 23L21 23L21 22L19 22L19 21L22 21L22 20L25 20L25 21L24 21L24 22L23 22L23 23L22 23L22 24L20 24L20 25L22 25L22 26L24 26L24 25L22 25L22 24L23 24L23 23L24 23L24 24L27 24L27 22L25 22L25 21L27 21L27 20L28 20L28 19L26 19L26 18L25 18L25 17L28 17L28 18L29 18L29 17L30 17L30 19L29 19L29 20L30 20L30 21L28 21L28 24L30 24L30 23L29 23L29 22L30 22L30 21L31 21L31 20L30 20L30 19L31 19L31 16L30 16L30 15L29 15L29 13L28 13L28 16L26 16L26 14L25 14L25 13L24 13L24 14L23 14L23 13L22 13L22 12L20 12L20 14L18 14L18 13L19 13L19 11L20 11L20 10L19 10L19 9L17 9L17 12L18 12L18 13L15 13L15 10L16 10L16 9L13 9L13 8L15 8L15 7L16 7L16 6L15 6L15 7L14 7L14 6L13 6L13 7L12 7L12 6ZM0 8L0 11L1 11L1 9L3 9L3 10L4 10L4 9L5 9L5 8ZM10 8L10 9L11 9L11 8ZM29 8L29 9L30 9L30 8ZM31 8L31 10L33 10L33 9L32 9L32 8ZM18 10L18 11L19 11L19 10ZM30 11L30 12L31 12L31 11ZM21 13L21 14L20 14L20 16L22 16L22 17L18 17L18 16L17 16L17 14L15 14L15 16L13 16L13 17L18 17L18 18L15 18L15 20L16 20L16 21L19 21L19 20L20 20L20 19L21 19L21 20L22 20L22 19L23 19L23 18L24 18L24 17L25 17L25 16L24 16L24 17L23 17L23 15L22 15L22 13ZM5 14L5 15L2 15L2 16L3 16L3 17L4 17L4 19L5 19L5 18L7 18L7 17L6 17L6 16L7 16L7 15L6 15L6 14ZM28 16L28 17L29 17L29 16ZM1 17L1 18L2 18L2 19L3 19L3 18L2 18L2 17ZM18 18L18 19L16 19L16 20L18 20L18 19L20 19L20 18ZM8 19L8 20L9 20L9 19ZM1 20L1 21L2 21L2 22L3 22L3 21L2 21L2 20ZM5 20L5 21L4 21L4 22L7 22L7 23L6 23L6 24L7 24L7 23L8 23L8 22L7 22L7 21L6 21L6 20ZM11 22L11 23L10 23L10 24L11 24L11 25L10 25L10 27L11 27L11 25L12 25L12 26L13 26L13 27L12 27L12 29L13 29L13 28L14 28L14 29L19 29L19 30L18 30L18 31L19 31L19 30L21 30L21 29L19 29L19 27L18 27L18 26L17 26L17 27L18 27L18 28L14 28L14 27L16 27L16 26L14 26L14 25L12 25L12 23L13 23L13 22ZM18 22L18 23L19 23L19 22ZM25 25L25 28L28 28L28 25ZM29 25L29 28L30 28L30 27L31 27L31 26L30 26L30 25ZM26 26L26 27L27 27L27 26ZM8 28L8 33L9 33L9 28ZM10 28L10 29L11 29L11 28ZM25 29L25 30L28 30L28 31L29 31L29 30L28 30L28 29ZM11 30L11 31L10 31L10 32L11 32L11 33L12 33L12 31L13 31L13 30ZM15 30L15 31L14 31L14 32L15 32L15 33L16 33L16 32L17 32L17 33L18 33L18 32L17 32L17 31L16 31L16 30ZM30 30L30 31L31 31L31 30ZM15 31L15 32L16 32L16 31ZM22 31L22 32L23 32L23 31ZM0 0L0 7L7 7L7 0ZM1 1L1 6L6 6L6 1ZM2 2L2 5L5 5L5 2ZM26 0L26 7L33 7L33 0ZM27 1L27 6L32 6L32 1ZM28 2L28 5L31 5L31 2ZM0 26L0 33L7 33L7 26ZM1 27L1 32L6 32L6 27ZM2 28L2 31L5 31L5 28Z" fill="#000000"/></g></g></svg>
