<?xml version="1.0" encoding="UTF-8"?>
<svg xmlns="http://www.w3.org/2000/svg" version="1.1" width="700" height="700" viewBox="0 0 700 700"><rect x="0" y="0" width="700" height="700" fill="#ffffff"/><g transform="scale(20)"><g transform="translate(1,1)"><path fill-rule="evenodd" d="M10 0L10 2L11 2L11 0ZM12 0L12 1L13 1L13 2L12 2L12 4L16 4L16 5L14 5L14 7L15 7L15 8L13 8L13 9L12 9L12 7L13 7L13 5L11 5L11 6L10 6L10 4L11 4L11 3L8 3L8 4L9 4L9 5L8 5L8 7L9 7L9 8L6 8L6 9L5 9L5 8L0 8L0 10L1 10L1 11L2 11L2 10L1 10L1 9L5 9L5 12L3 12L3 13L7 13L7 12L9 12L9 14L6 14L6 15L7 15L7 16L5 16L5 14L3 14L3 15L4 15L4 17L7 17L7 18L6 18L6 19L4 19L4 18L3 18L3 16L1 16L1 15L2 15L2 12L0 12L0 25L1 25L1 21L4 21L4 22L2 22L2 23L5 23L5 21L7 21L7 22L6 22L6 23L8 23L8 22L9 22L9 21L10 21L10 20L11 20L11 19L10 19L10 18L11 18L11 17L12 17L12 18L13 18L13 17L18 17L18 19L19 19L19 18L20 18L20 19L21 19L21 20L22 20L22 21L19 21L19 20L17 20L17 18L14 18L14 20L13 20L13 19L12 19L12 21L14 21L14 22L15 22L15 23L14 23L14 24L13 24L13 25L12 25L12 23L13 23L13 22L11 22L11 23L9 23L9 24L6 24L6 25L8 25L8 27L9 27L9 28L8 28L8 33L9 33L9 32L10 32L10 33L13 33L13 32L12 32L12 31L14 31L14 32L15 32L15 33L16 33L16 32L17 32L17 33L18 33L18 32L19 32L19 31L18 31L18 30L15 30L15 29L19 29L19 30L20 30L20 32L22 32L22 33L23 33L23 32L24 32L24 33L25 33L25 32L24 32L24 31L27 31L27 32L28 32L28 33L29 33L29 31L30 31L30 32L31 32L31 33L32 33L32 32L31 32L31 31L32 31L32 30L31 30L31 29L30 29L30 28L33 28L33 27L32 27L32 26L33 26L33 24L32 24L32 26L31 26L31 25L30 25L30 24L31 24L31 23L32 23L32 22L33 22L33 21L32 21L32 20L31 20L31 19L32 19L32 18L33 18L33 17L32 17L32 16L31 16L31 15L32 15L32 14L33 14L33 13L31 13L31 15L30 15L30 13L29 13L29 10L28 10L28 8L27 8L27 9L26 9L26 8L24 8L24 9L23 9L23 8L22 8L22 7L23 7L23 6L22 6L22 5L24 5L24 3L25 3L25 0L23 0L23 1L22 1L22 2L21 2L21 1L20 1L20 0L19 0L19 1L18 1L18 0L16 0L16 1L15 1L15 2L14 2L14 1L13 1L13 0ZM8 1L8 2L9 2L9 1ZM17 1L17 2L15 2L15 3L16 3L16 4L17 4L17 8L18 8L18 9L13 9L13 10L12 10L12 9L11 9L11 8L10 8L10 9L8 9L8 11L9 11L9 12L11 12L11 13L10 13L10 15L11 15L11 14L16 14L16 15L12 15L12 17L13 17L13 16L18 16L18 17L19 17L19 16L18 16L18 15L21 15L21 14L18 14L18 13L22 13L22 12L23 12L23 13L24 13L24 14L22 14L22 16L20 16L20 17L21 17L21 19L22 19L22 18L23 18L23 20L24 20L24 19L25 19L25 21L24 21L24 22L23 22L23 21L22 21L22 23L24 23L24 24L27 24L27 22L25 22L25 21L27 21L27 20L28 20L28 19L26 19L26 18L25 18L25 17L28 17L28 18L29 18L29 17L30 17L30 19L29 19L29 20L30 20L30 21L28 21L28 24L30 24L30 23L29 23L29 22L30 22L30 21L31 21L31 20L30 20L30 19L31 19L31 16L30 16L30 15L29 15L29 13L28 13L28 16L26 16L26 14L25 14L25 13L27 13L27 12L28 12L28 11L27 11L27 10L25 10L25 9L24 9L24 10L23 10L23 9L22 9L22 8L20 8L20 5L21 5L21 4L22 4L22 3L24 3L24 1L23 1L23 2L22 2L22 3L20 3L20 5L19 5L19 7L18 7L18 4L19 4L19 2L20 2L20 1L19 1L19 2L18 2L18 1ZM13 2L13 3L14 3L14 2ZM17 3L17 4L18 4L18 3ZM9 6L9 7L10 7L10 6ZM11 6L11 7L12 7L12 6ZM15 6L15 7L16 7L16 6ZM21 6L21 7L22 7L22 6ZM24 6L24 7L25 7L25 6ZM29 8L29 9L30 9L30 8ZM31 8L31 10L33 10L33 9L32 9L32 8ZM6 9L6 10L7 10L7 9ZM10 9L10 11L11 11L11 9ZM18 9L18 11L19 11L19 12L20 12L20 11L21 11L21 12L22 12L22 10L21 10L21 9ZM13 10L13 11L12 11L12 13L18 13L18 12L16 12L16 11L17 11L17 10L15 10L15 12L13 12L13 11L14 11L14 10ZM19 10L19 11L20 11L20 10ZM24 10L24 11L25 11L25 12L24 12L24 13L25 13L25 12L26 12L26 11L25 11L25 10ZM6 11L6 12L7 12L7 11ZM30 11L30 12L31 12L31 11ZM17 14L17 15L18 15L18 14ZM24 14L24 15L23 15L23 18L24 18L24 17L25 17L25 16L24 16L24 15L25 15L25 14ZM8 15L8 17L9 17L9 18L8 18L8 19L6 19L6 20L7 20L7 21L9 21L9 20L8 20L8 19L9 19L9 18L10 18L10 17L11 17L11 16L10 16L10 17L9 17L9 15ZM28 16L28 17L29 17L29 16ZM1 17L1 20L4 20L4 19L3 19L3 18L2 18L2 17ZM14 20L14 21L15 21L15 22L16 22L16 21L17 21L17 20L16 20L16 21L15 21L15 20ZM18 21L18 22L17 22L17 24L19 24L19 25L15 25L15 24L16 24L16 23L15 23L15 24L14 24L14 25L13 25L13 26L12 26L12 25L11 25L11 24L9 24L9 26L10 26L10 28L9 28L9 31L10 31L10 30L14 30L14 31L15 31L15 30L14 30L14 29L15 29L15 27L13 27L13 26L14 26L14 25L15 25L15 26L16 26L16 28L18 28L18 27L21 27L21 26L19 26L19 25L22 25L22 24L20 24L20 23L21 23L21 22L19 22L19 21ZM18 22L18 23L19 23L19 22ZM3 24L3 25L5 25L5 24ZM23 25L23 26L24 26L24 25ZM25 25L25 28L28 28L28 25ZM29 25L29 28L30 28L30 27L31 27L31 26L30 26L30 25ZM17 26L17 27L18 27L18 26ZM26 26L26 27L27 27L27 26ZM12 27L12 29L14 29L14 28L13 28L13 27ZM22 27L22 28L20 28L20 29L22 29L22 28L23 28L23 31L22 31L22 32L23 32L23 31L24 31L24 27ZM25 29L25 30L28 30L28 31L29 31L29 30L28 30L28 29ZM30 30L30 31L31 31L31 30ZM17 31L17 32L18 32L18 31ZM0 0L0 7L7 7L7 0ZM1 1L1 6L6 6L6 1ZM2 2L2 5L5 5L5 2ZM26 0L26 7L33 7L33 0ZM27 1L27 6L32 6L32 1ZM28 2L28 5L31 5L31 2ZM0 26L0 33L7 33L7 26ZM1 27L1 32L6 32L6 27ZM2 28L2 31L5 31L5 28Z" fill="#000000"/></g></g></svg>
