<?xml version="1.0" encoding="UTF-8"?>
<svg xmlns="http://www.w3.org/2000/svg" version="1.1" width="300" height="300" viewBox="0 0 300 300"><rect x="0" y="0" width="300" height="300" fill="#ffffff"/><g transform="scale(9.091)"><g transform="translate(0,0)"><path fill-rule="evenodd" d="M10 0L10 2L11 2L11 0ZM12 0L12 1L13 1L13 2L12 2L12 4L13 4L13 5L11 5L11 6L10 6L10 4L11 4L11 3L8 3L8 4L9 4L9 5L8 5L8 7L9 7L9 8L6 8L6 9L5 9L5 8L0 8L0 10L1 10L1 9L2 9L2 10L3 10L3 11L4 11L4 12L6 12L6 13L4 13L4 15L5 15L5 16L4 16L4 20L3 20L3 16L2 16L2 14L1 14L1 15L0 15L0 16L1 16L1 17L0 17L0 18L1 18L1 20L0 20L0 25L1 25L1 22L3 22L3 23L4 23L4 25L5 25L5 24L6 24L6 25L8 25L8 27L9 27L9 28L8 28L8 33L9 33L9 30L11 30L11 31L10 31L10 32L11 32L11 33L12 33L12 31L13 31L13 30L11 30L11 28L10 28L10 27L11 27L11 25L12 25L12 26L13 26L13 27L12 27L12 29L13 29L13 28L14 28L14 29L16 29L16 30L15 30L15 31L14 31L14 32L15 32L15 33L18 33L18 32L17 32L17 30L18 30L18 31L19 31L19 33L20 33L20 32L21 32L21 33L23 33L23 32L24 32L24 33L25 33L25 32L24 32L24 31L27 31L27 32L28 32L28 33L29 33L29 31L30 31L30 32L31 32L31 33L32 33L32 32L31 32L31 31L32 31L32 30L31 30L31 29L30 29L30 28L32 28L32 26L33 26L33 24L32 24L32 26L31 26L31 25L30 25L30 24L31 24L31 23L32 23L32 22L33 22L33 21L32 21L32 20L31 20L31 19L32 19L32 18L33 18L33 17L32 17L32 16L31 16L31 15L32 15L32 14L33 14L33 13L31 13L31 15L30 15L30 13L29 13L29 10L28 10L28 8L27 8L27 9L26 9L26 8L24 8L24 7L25 7L25 4L24 4L24 2L23 2L23 1L24 1L24 0L20 0L20 1L21 1L21 2L19 2L19 0L18 0L18 2L19 2L19 3L20 3L20 4L18 4L18 3L17 3L17 2L16 2L16 1L17 1L17 0L16 0L16 1L15 1L15 2L14 2L14 1L13 1L13 0ZM8 1L8 2L9 2L9 1ZM13 2L13 3L14 3L14 2ZM15 2L15 3L16 3L16 4L14 4L14 5L13 5L13 7L12 7L12 6L11 6L11 7L12 7L12 9L11 9L11 8L10 8L10 9L6 9L6 10L8 10L8 11L6 11L6 12L11 12L11 13L10 13L10 15L9 15L9 17L8 17L8 15L6 15L6 16L7 16L7 17L5 17L5 20L7 20L7 21L5 21L5 22L4 22L4 23L6 23L6 24L7 24L7 23L6 23L6 22L8 22L8 18L11 18L11 19L9 19L9 21L10 21L10 20L11 20L11 22L13 22L13 23L12 23L12 25L14 25L14 26L15 26L15 24L16 24L16 25L17 25L17 26L16 26L16 27L17 27L17 28L19 28L19 29L18 29L18 30L19 30L19 31L20 31L20 30L19 30L19 29L20 29L20 28L19 28L19 27L22 27L22 28L23 28L23 31L22 31L22 30L21 30L21 31L22 31L22 32L23 32L23 31L24 31L24 27L22 27L22 26L24 26L24 25L22 25L22 24L21 24L21 25L20 25L20 24L19 24L19 23L21 23L21 22L22 22L22 21L24 21L24 22L23 22L23 23L24 23L24 24L27 24L27 22L25 22L25 21L27 21L27 20L28 20L28 19L26 19L26 18L25 18L25 17L28 17L28 18L29 18L29 17L30 17L30 19L29 19L29 20L30 20L30 21L28 21L28 24L30 24L30 23L29 23L29 22L30 22L30 21L31 21L31 20L30 20L30 19L31 19L31 16L30 16L30 15L29 15L29 13L28 13L28 16L26 16L26 14L25 14L25 13L27 13L27 12L28 12L28 11L27 11L27 10L25 10L25 9L24 9L24 10L23 10L23 9L22 9L22 8L20 8L20 5L21 5L21 7L22 7L22 5L23 5L23 7L24 7L24 5L23 5L23 4L22 4L22 3L23 3L23 2L22 2L22 3L21 3L21 4L20 4L20 5L16 5L16 4L17 4L17 3L16 3L16 2ZM14 5L14 7L15 7L15 8L14 8L14 10L13 10L13 9L12 9L12 10L13 10L13 11L12 11L12 13L13 13L13 14L11 14L11 17L12 17L12 18L13 18L13 19L12 19L12 21L13 21L13 19L14 19L14 23L17 23L17 21L18 21L18 22L21 22L21 21L20 21L20 20L22 20L22 19L23 19L23 20L25 20L25 19L23 19L23 18L24 18L24 17L25 17L25 15L23 15L23 14L24 14L24 13L25 13L25 12L26 12L26 11L24 11L24 13L23 13L23 11L21 11L21 9L19 9L19 10L18 10L18 9L17 9L17 6L16 6L16 5ZM9 6L9 7L10 7L10 6ZM15 6L15 7L16 7L16 6ZM18 6L18 7L19 7L19 6ZM29 8L29 9L30 9L30 8ZM31 8L31 10L33 10L33 9L32 9L32 8ZM3 9L3 10L4 10L4 9ZM10 9L10 11L11 11L11 9ZM15 9L15 10L17 10L17 11L16 11L16 12L15 12L15 11L13 11L13 12L15 12L15 14L13 14L13 15L12 15L12 17L13 17L13 18L14 18L14 19L15 19L15 18L17 18L17 19L16 19L16 20L15 20L15 21L17 21L17 20L18 20L18 21L19 21L19 20L20 20L20 19L22 19L22 18L23 18L23 17L24 17L24 16L23 16L23 17L22 17L22 16L20 16L20 14L21 14L21 13L22 13L22 14L23 14L23 13L22 13L22 12L21 12L21 11L20 11L20 10L19 10L19 11L20 11L20 12L18 12L18 10L17 10L17 9ZM30 11L30 12L31 12L31 11ZM0 12L0 13L3 13L3 12ZM20 12L20 13L16 13L16 14L15 14L15 15L14 15L14 16L13 16L13 17L14 17L14 18L15 18L15 17L17 17L17 16L15 16L15 15L19 15L19 14L20 14L20 13L21 13L21 12ZM6 13L6 14L7 14L7 13ZM28 16L28 17L29 17L29 16ZM1 17L1 18L2 18L2 17ZM19 17L19 18L21 18L21 17ZM6 18L6 19L7 19L7 18ZM18 19L18 20L19 20L19 19ZM1 20L1 21L3 21L3 20ZM8 23L8 25L9 25L9 26L10 26L10 25L11 25L11 23ZM2 24L2 25L3 25L3 24ZM9 24L9 25L10 25L10 24ZM19 25L19 26L18 26L18 27L19 27L19 26L20 26L20 25ZM25 25L25 28L28 28L28 25ZM29 25L29 28L30 28L30 27L31 27L31 26L30 26L30 25ZM26 26L26 27L27 27L27 26ZM14 27L14 28L15 28L15 27ZM9 28L9 29L10 29L10 28ZM25 29L25 30L28 30L28 31L29 31L29 30L28 30L28 29ZM30 30L30 31L31 31L31 30ZM15 31L15 32L16 32L16 31ZM0 0L0 7L7 7L7 0ZM1 1L1 6L6 6L6 1ZM2 2L2 5L5 5L5 2ZM26 0L26 7L33 7L33 0ZM27 1L27 6L32 6L32 1ZM28 2L28 5L31 5L31 2ZM0 26L0 33L7 33L7 26ZM1 27L1 32L6 32L6 27ZM2 28L2 31L5 31L5 28Z" fill="#000000"/></g></g></svg>
