<?xml version="1.0" encoding="UTF-8"?>
<svg version="1.1" xmlns="http://www.w3.org/2000/svg" width="529" height="125">
<path d="M0 0 C5.28 0 10.56 0 16 0 C16.01458252 1.6806958 16.02916504 3.3613916 16.04418945 5.09301758 C16.09582939 10.64520425 16.16111199 16.1971181 16.23571491 21.74904346 C16.28044841 25.11530477 16.31969739 28.48144423 16.34643555 31.84790039 C16.3798898 35.71791721 16.43220252 39.58728447 16.48828125 43.45703125 C16.49467117 44.66647903 16.5010611 45.87592682 16.50764465 47.12202454 C16.53733589 48.80342781 16.53733589 48.80342781 16.56762695 50.51879883 C16.57873001 51.50697098 16.58983307 52.49514313 16.60127258 53.51325989 C16.81328784 56.03536869 16.81328784 56.03536869 18.33952332 57.84257507 C20.07284165 59.28591678 20.07284165 59.28591678 23 59 C22.67773438 58.15050781 22.35546875 57.30101562 22.0234375 56.42578125 C19.67474102 48.56392317 19.70226449 39.30703556 23.62109375 31.9609375 C28.70173297 24.73577918 35.48032697 20.96966449 44 19 C52.66048695 17.81178609 60.73487735 19.61039414 68.10546875 24.35546875 C72.26122117 27.66057675 74.63820685 31.27641371 77 36 C77.33 30.72 77.66 25.44 78 20 C83.28 20 88.56 20 94 20 C94.495 21.98 94.495 21.98 95 24 C95.78375 23.360625 96.5675 22.72125 97.375 22.0625 C105.6487233 16.66159729 117.6470985 19.24573375 127 20 C127.01458252 20.85231201 127.02916504 21.70462402 127.04418945 22.58276367 C127.10543285 25.76071175 127.17962029 28.93802546 127.26245117 32.11547852 C127.29559806 33.48775958 127.32366171 34.86017362 127.34643555 36.23266602 C127.38016766 38.21137766 127.4340149 40.18971376 127.48828125 42.16796875 C127.51446533 43.35672607 127.54064941 44.5454834 127.56762695 45.77026367 C128.04011156 49.29962494 128.78341543 51.22585989 131 54 C135.57620723 55.20031665 137.87682628 55.35359173 142.375 53.9375 C145.67462468 51.50206274 145.9671768 49.9200468 147 46 C147.35883839 42.9143351 147.35883839 42.9143351 147.4140625 39.7265625 C147.47207031 37.99599609 147.47207031 37.99599609 147.53125 36.23046875 C147.5621875 35.04066406 147.593125 33.85085937 147.625 32.625 C147.66367187 31.41199219 147.70234375 30.19898437 147.7421875 28.94921875 C147.83613495 25.96638735 147.91914253 22.98321494 148 20 C153.28 20 158.56 20 164 20 C164.07446666 26.95594982 164.12875215 33.91166468 164.16479492 40.86791992 C164.17982941 43.23156784 164.20026242 45.59518811 164.22631836 47.95874023 C164.26293645 51.36709441 164.27978031 54.77507792 164.29296875 58.18359375 C164.30845261 59.23083115 164.32393646 60.27806854 164.33988953 61.35704041 C164.34191084 70.28067937 162.75227104 77.93292415 157 85 C150.13388574 90.37348073 143.76695027 91.38925975 135.3125 91.375 C134.425625 91.37483887 133.53875 91.37467773 132.625 91.37451172 C125.80386354 91.25591583 120.12155399 90.12930185 114 87 C112.87078125 86.43925781 112.87078125 86.43925781 111.71875 85.8671875 C111.1515625 85.58101563 110.584375 85.29484375 110 85 C111.31860889 80.38486888 113.21355437 76.90102388 116 73 C118.8163093 73.65040327 121.4276621 74.53233589 124.125 75.5625 C130.41018525 77.66446475 136.13020304 77.81994199 142.5 76 C146.14363024 73.08509581 146.25568844 70.54030052 147 66 C146.46632813 66.28875 145.93265625 66.5775 145.3828125 66.875 C138.08797606 70.5097974 131.52253899 71.37508794 123.6875 68.8125 C117.8018016 66.25453047 114.57899345 61.96363183 111.82910156 56.3425293 C110.33341462 52.11664114 110.58262962 47.92887777 110.75 43.5 C110.76804687 42.5821875 110.78609375 41.664375 110.8046875 40.71875 C110.85136898 38.47803908 110.91681478 36.23960201 111 34 C103.6252396 34.70521365 103.6252396 34.70521365 97.375 38.25 C95.02595298 42.94809405 94.8707357 47.86818207 94.68359375 53.0546875 C94.64169922 54.16328125 94.59980469 55.271875 94.55664062 56.4140625 C94.51732422 57.55617187 94.47800781 58.69828125 94.4375 59.875 C94.37272461 61.62296875 94.37272461 61.62296875 94.30664062 63.40625 C94.20098437 66.27070842 94.10002901 69.13533955 94 72 C88.72 72 83.44 72 78 72 C77.67 66.72 77.34 61.44 77 56 C75.6696875 58.10375 75.6696875 58.10375 74.3125 60.25 C69.58180061 67.26372834 64.17104236 70.82401589 56 73 C46.11096126 74.211892 37.9738522 72.58117359 29.875 66.75 C29.25625 66.1725 28.6375 65.595 28 65 C27.67 67.31 27.34 69.62 27 72 C21.03994265 73.98668578 14.33219281 73.98871422 8.5625 71.375 C3.9415629 68.71417351 1.66790576 65.00371727 0 60 C-0.08877175 58.05219171 -0.11761308 56.10143718 -0.11352539 54.15161133 C-0.11344986 52.9505928 -0.11337433 51.74957428 -0.11329651 50.51216125 C-0.10813522 49.21521835 -0.10297394 47.91827545 -0.09765625 46.58203125 C-0.09579077 45.24110466 -0.09436748 43.90017739 -0.09336853 42.55924988 C-0.08955356 39.03290927 -0.07973199 35.50660996 -0.06866455 31.98028564 C-0.0584285 28.38074299 -0.05386621 24.78119365 -0.04882812 21.18164062 C-0.0381088 14.12107526 -0.02052025 7.06054467 0 0 Z M39 37 C36.5496543 41.00965659 36.41503441 45.41027 37 50 C38.60028491 54.240755 40.15354252 56.62927044 44 59 C48.46687814 59.74084808 52.68552842 59.47544717 56.9375 57.9375 C59.73116828 55.31314495 61.20197875 52.70509864 62 49 C62.14381962 43.7505839 61.39837703 39.15357192 58 35 C51.52550559 31.09321553 44.5597774 31.98263991 39 37 Z " fill="#3C3B3B" transform="translate(195,34)"/>
<path d="M0 0 C6.9986256 2.38889622 11.11827667 7.74839597 14.375 14.25 C17.60879849 22.39749229 17.86011483 30.96100379 15.1875 39.2890625 C11.43741866 47.85010345 4.97529455 54.12735326 -1.62646484 60.51269531 C-9.56833787 68.33542757 -15.87596076 78.03944381 -16.375 89.4375 C-15.91785983 100.84612869 -10.71255715 109.78406081 -2.6484375 117.53125 C-0.91730164 119.11721052 -0.91730164 119.11721052 1.4375 120.8125 C1.953125 121.204375 2.46875 121.59625 3 122 C3 122.66 3 123.32 3 124 C-10.54050349 123.70680012 -21.04339815 118.68411548 -30.7109375 109.34765625 C-39.57775692 99.78319368 -41.58702811 89.28424734 -41.328125 76.6796875 C-40.4996903 59.85974691 -27.75843906 46.82648858 -16 36 C-14.75676131 34.97094303 -13.50752574 33.94904818 -12.25 32.9375 C-6.80891193 28.40969149 -1.68846704 21.2552307 -0.75170898 14.10473633 C-0.58228974 11.96566238 -0.46695756 9.83126064 -0.375 7.6875 C-0.33632813 6.94693359 -0.29765625 6.20636719 -0.2578125 5.44335938 C-0.16418295 3.62928691 -0.08103149 1.81467884 0 0 Z " fill="#FC5F06" transform="translate(62,0)"/>
<path d="M0 0 C0 -0.99 0 -1.98 0 -3 C0.99 -3 1.98 -3 3 -3 C3.495 5.91 3.495 5.91 4 15 C2.68 15 1.36 15 0 15 C-0.15855469 14.39671875 -0.31710937 13.7934375 -0.48046875 13.171875 C-1.99763455 7.97495347 -3.19424094 4.95739019 -8 2 C-11.35281064 0.32359468 -14.69231965 0.63675546 -18.25 1.625 C-20.93405796 3.73390268 -21.31450602 5.69716535 -22 9 C-21.8096912 14.4238007 -20.70782721 17.09577103 -17 21 C-14.49511222 22.67527751 -11.86098813 24.05191809 -9.1875 25.4375 C-3.53437773 28.47732644 1.3721859 31.48788125 6 36 C6.0928125 34.948125 6.0928125 34.948125 6.1875 33.875 C7.51075519 29.19271242 10.49777034 26.24470457 14.1875 23.1875 C19.25476951 21.04798621 24.64182977 20.20866771 29.91015625 21.9765625 C33.29237759 23.09684315 35.94847671 23.23400804 39.5 23.1875 C40.5828125 23.18105469 41.665625 23.17460938 42.78125 23.16796875 C45.92420444 23.00395535 48.90955517 22.58178555 52 22 C52.495 22.99 52.495 22.99 53 24 C53.99 23.34 54.98 22.68 56 22 C58.17651367 21.77294922 58.17651367 21.77294922 60.66796875 21.8046875 C61.56064453 21.81113281 62.45332031 21.81757812 63.37304688 21.82421875 C64.76620117 21.84935547 64.76620117 21.84935547 66.1875 21.875 C67.12787109 21.88402344 68.06824219 21.89304687 69.03710938 21.90234375 C71.35832968 21.92590944 73.67903644 21.95880884 76 22 C76.495 23.485 76.495 23.485 77 25 C75.35 25 73.7 25 72 25 C74.64 32.92 77.28 40.84 80 49 C83.40516225 40.49349042 83.40516225 40.49349042 86.25 31.875 C86.58515625 30.75867188 86.9203125 29.64234375 87.265625 28.4921875 C87.62914062 27.25855469 87.62914062 27.25855469 88 26 C86.68 25.67 85.36 25.34 84 25 C84.495 23.515 84.495 23.515 85 22 C86.95825873 21.97305149 88.91662226 21.95362782 90.875 21.9375 C92.51082031 21.92009766 92.51082031 21.92009766 94.1796875 21.90234375 C97 22 97 22 99 23 C99 23.66 99 24.32 99 25 C96.03 25.495 96.03 25.495 93 26 C92.64695801 27.10512939 92.29391602 28.21025879 91.93017578 29.34887695 C90.61914263 33.44854509 89.30196012 37.54621546 87.98291016 41.64331055 C87.41286976 43.41685967 86.84449863 45.19094621 86.27783203 46.96557617 C85.46304534 49.51624378 84.64227578 52.06491865 83.8203125 54.61328125 C83.44206833 55.80405022 83.44206833 55.80405022 83.05618286 57.01887512 C81.97602692 60.35043198 80.9544495 63.06832575 79 66 C77.515 65.505 77.515 65.505 76 65 C74.6496582 62.25610352 74.6496582 62.25610352 73.30078125 58.62890625 C73.0608696 57.99137924 72.82095795 57.35385223 72.57377625 56.69700623 C72.06849615 55.34809039 71.5686984 53.99711019 71.07397461 52.64428711 C70.31533559 50.57025218 69.54112208 48.50259476 68.76367188 46.43554688 C65 36.34203867 65 36.34203867 65 34 C64.05125 34.04125 63.1025 34.0825 62.125 34.125 C59 34 59 34 57 32 C57.375 29.375 57.375 29.375 58 27 C56.68 27 55.36 27 54 27 C53.05747447 31.04179098 52.80704506 34.90634444 52.68359375 39.05078125 C52.66281265 39.70958786 52.64203156 40.36839447 52.62062073 41.04716492 C52.55564511 43.13551185 52.49648425 45.22397612 52.4375 47.3125 C52.39426521 48.7350378 52.3506494 50.15756406 52.30664062 51.58007812 C52.20001784 55.05326297 52.09860652 58.52657726 52 62 C53.98 62.33 55.96 62.66 58 63 C57.505 64.485 57.505 64.485 57 66 C56.37955811 65.96970703 55.75911621 65.93941406 55.11987305 65.90820312 C52.30911782 65.77138831 49.49831015 65.63568164 46.6875 65.5 C45.71103516 65.45230469 44.73457031 65.40460938 43.72851562 65.35546875 C42.79072266 65.31035156 41.85292969 65.26523438 40.88671875 65.21875 C40.02264404 65.17685547 39.15856934 65.13496094 38.26831055 65.09179688 C34.50920812 64.85983292 34.50920812 64.85983292 31 66 C24.51848835 66.50454881 18.45784379 66.93472459 13 63 C10.56291109 60.75728014 8.25000161 58.42973547 6 56 C5.46375 56.7425 4.9275 57.485 4.375 58.25 C1.12012581 62.01880169 -2.27206167 64.42402056 -7 66 C-14.64022778 66.45502742 -21.61925767 66.00155724 -29 64 C-29.495 64.99 -29.495 64.99 -30 66 C-30.99 66 -31.98 66 -33 66 C-33 59.07 -33 52.14 -33 45 C-31.02 44.505 -31.02 44.505 -29 44 C-28.75765625 44.89203125 -28.5153125 45.7840625 -28.265625 46.703125 C-27.93046875 47.87359375 -27.5953125 49.0440625 -27.25 50.25 C-26.92515625 51.41015625 -26.6003125 52.5703125 -26.265625 53.765625 C-24.94797747 57.13294647 -23.7976938 58.75757367 -21 61 C-18.22947819 61.92350727 -16.43311242 62.16329585 -13.5625 62.1875 C-12.80066406 62.20167969 -12.03882813 62.21585937 -11.25390625 62.23046875 C-8.72278694 61.97165412 -7.1501862 61.34445194 -5 60 C-2.62130293 55.95621498 -2.31313608 51.58210535 -3 47 C-5.80780198 40.61863186 -11.19442109 38.26883035 -17 35 C-29.02100668 27.71913791 -29.02100668 27.71913791 -31.8125 21.0625 C-32.37746574 14.84787687 -31.9987502 10.58387969 -29 5 C-20.58858391 -5.00276508 -11.26215079 -4.47291095 0 0 Z M18 26 C16.74179008 28.62350153 15.89752695 31.21766647 15 34 C20.28 34 25.56 34 31 34 C30.74257368 27.42289013 30.74257368 27.42289013 28.1875 25.0625 C24.45683514 23.25046278 21.20361469 23.51978217 18 26 Z M38 27 C38.99 30.3 39.98 33.6 41 37 C32.42 37 23.84 37 15 37 C12.26736634 42.46526732 14.23065367 49.28377639 16.0078125 54.79296875 C17.71257176 58.58505136 20.40730237 60.20365118 24 62 C28.03990348 62.38112297 30.29321967 62.4240682 33.8125 60.3125 C36.06305044 57.93334668 37.05020109 56.10843279 38 53 C38.99 53 39.98 53 41 53 C39.33333333 56.33333333 37.66666667 59.66666667 36 63 C37.98 63 39.96 63 42 63 C42 51.45 42 39.9 42 28 C40.68 27.67 39.36 27.34 38 27 Z " fill="#FC5405" transform="translate(393,41)"/>
<path d="M0 0 C1.86328125 1.81640625 1.86328125 1.81640625 2.86328125 5.81640625 C-0.10671875 8.45640625 -3.07671875 11.09640625 -6.13671875 13.81640625 C-10.13671875 11.81640625 -10.13671875 11.81640625 -11.85546875 10.74609375 C-17.76466313 7.24722866 -23.39367259 7.01983761 -30.13671875 7.81640625 C-32.73250061 8.57503264 -34.72739821 9.53485277 -37.13671875 10.81640625 C-38.12671875 11.14640625 -39.11671875 11.47640625 -40.13671875 11.81640625 C-41.27881692 13.59869561 -41.27881692 13.59869561 -42.13671875 15.81640625 C-42.64912109 16.91082031 -42.64912109 16.91082031 -43.171875 18.02734375 C-45.19116842 23.86449152 -45.2482072 31.23561101 -43.4140625 37.14453125 C-40.85314226 41.91385639 -37.23212327 45.11793808 -32.13671875 46.81640625 C-30.20286402 46.96151512 -28.26328915 47.03713726 -26.32421875 47.06640625 C-24.79861328 47.10507813 -24.79861328 47.10507813 -23.2421875 47.14453125 C-19.49038683 46.93168476 -19.49038683 46.93168476 -14.13671875 43.81640625 C-13.80671875 37.87640625 -13.47671875 31.93640625 -13.13671875 25.81640625 C-8.18671875 25.81640625 -3.23671875 25.81640625 1.86328125 25.81640625 C1.86328125 37.36640625 1.86328125 48.91640625 1.86328125 60.81640625 C-2.42671875 60.81640625 -6.71671875 60.81640625 -11.13671875 60.81640625 C-11.46671875 60.15640625 -11.79671875 59.49640625 -12.13671875 58.81640625 C-13.10996094 59.30238281 -14.08320313 59.78835937 -15.0859375 60.2890625 C-19.39527013 62.12694576 -23.30896319 62.31683164 -27.94921875 62.25390625 C-28.74384521 62.24488281 -29.53847168 62.23585938 -30.35717773 62.2265625 C-40.22059641 61.93625442 -46.95344098 58.90423731 -54.15625 52.109375 C-62.10153586 42.91039511 -62.78860127 32.57038185 -62.30273438 20.96435547 C-61.58507161 11.67906575 -55.92071846 4.80291383 -49.13671875 -1.18359375 C-33.88937464 -11.38832092 -14.7476311 -10.51386141 0 0 Z " fill="#3D3B3B" transform="translate(189.13671875,45.18359375)"/>
<path d="M0 0 C3.7240272 1.2413424 4.11982648 2.36359057 6.0625 5.6875 C6.56910156 6.53699219 7.07570312 7.38648437 7.59765625 8.26171875 C11.96081572 16.78142569 12.38453504 25.92424782 10.265625 35.22265625 C5.86093032 47.33556663 -3.31052402 56.11997946 -14.6953125 61.73046875 C-19.70178289 63.6537582 -24.67306842 64.52969433 -30 65 C-33.16364205 59.76537942 -32.6730819 53.90186548 -32 48 C-29.09875918 39.89001984 -21.22642113 33.87810548 -14.875 28.4375 C-5.23668112 20.06787928 -2.16677871 12.43985895 0 0 Z " fill="#FA4B05" transform="translate(99,59)"/>
<path d="M0 0 C0.99 0.33 1.98 0.66 3 1 C6.47083951 8.85505783 6.3436652 19.21128962 3.5625 27.25 C0.18150627 34.46983037 -5.68681849 39.76760623 -11.3359375 45.23828125 C-11.91093994 45.79990967 -12.48594238 46.36153809 -13.07836914 46.94018555 C-14.20230844 48.03216149 -15.33640364 49.11381842 -16.48217773 50.18286133 C-21.99184838 55.49915119 -25.36088597 61.21771948 -25.75 69 C-25.80671875 69.94875 -25.8634375 70.8975 -25.921875 71.875 C-25.94765625 72.57625 -25.9734375 73.2775 -26 74 C-30.14174216 72.2597722 -31.41117187 70.333486 -33.23828125 66.33984375 C-35.24180543 60.18542845 -34.55601266 53.48337866 -32.29296875 47.48046875 C-27.64457207 38.56284975 -20.81122229 31.59725677 -13.2578125 25.109375 C-6.55565182 18.8478408 -1.18312723 9.16923603 0 0 Z " fill="#FB5604" transform="translate(86,31)"/>
<path d="M0 0 C0.33 0 0.66 0 1 0 C1.33 3.96 1.66 7.92 2 12 C2.33 12 2.66 12 3 12 C3 15.3 3 18.6 3 22 C3.66 22 4.32 22 5 22 C5 22.99 5 23.98 5 25 C-3.31158311 30.01376143 -10.18057787 33.13306003 -20 34 C-23.15893103 28.77317435 -22.69002934 22.89341382 -22 17 C-19.99712567 11.72797128 -16.63783168 8.18022744 -12 5 C-12 5.66 -12 6.32 -12 7 C-11.34 7 -10.68 7 -10 7 C-10 9.64 -10 12.28 -10 15 C-10.66 15 -11.32 15 -12 15 C-12 15.66 -12 16.32 -12 17 C-11.34 17 -10.68 17 -10 17 C-10 17.99 -10 18.98 -10 20 C-9.34 20 -8.68 20 -8 20 C-8 16.37 -8 12.74 -8 9 C-7.67 9 -7.34 9 -7 9 C-7 12.3 -7 15.6 -7 19 C-6.34 19 -5.68 19 -5 19 C-5 17.68 -5 16.36 -5 15 C-4.34 15 -3.68 15 -3 15 C-3 13.02 -3 11.04 -3 9 C-2.67 9.99 -2.34 10.98 -2 12 C-1.34 12 -0.68 12 0 12 C0 8.04 0 4.08 0 0 Z " fill="#F96A41" transform="translate(89,90)"/>
<path d="M0 0 C0.15855469 1.05058594 0.31710938 2.10117188 0.48046875 3.18359375 C2.55015802 16.00192021 6.02942697 24.23858195 16 33 C16.74121094 33.52851562 17.48242188 34.05703125 18.24609375 34.6015625 C18.82488281 35.06304687 19.40367188 35.52453125 20 36 C20 36.66 20 37.32 20 38 C12.30423725 37.83335947 1.76184322 36.76184322 -4 31 C-4.52257862 24.85970117 -2.95714283 19.78988088 -1 14 C-1.66 14 -2.32 14 -3 14 C-3.33 14.66 -3.66 15.32 -4 16 C-4 14.02 -4 12.04 -4 10 C-3.01 10 -2.02 10 -1 10 C-1.33 9.34 -1.66 8.68 -2 8 C-2.66 8 -3.32 8 -4 8 C-3.7215625 7.1028125 -3.7215625 7.1028125 -3.4375 6.1875 C-2.77906313 3.83591238 -2.77906313 3.83591238 -4 1 C-1 0 -1 0 0 0 Z " fill="#FA7347" transform="translate(45,86)"/>
<path d="M0 0 C0.99 0 1.98 0 3 0 C3 1.65 3 3.3 3 5 C3.66 5 4.32 5 5 5 C5.33 4.01 5.66 3.02 6 2 C6.66 5.3 7.32 8.6 8 12 C8.33 9.03 8.66 6.06 9 3 C9.33 3 9.66 3 10 3 C10 12.24 10 21.48 10 31 C5 28 5 28 4.16015625 25.80078125 C3.95613075 22.23282314 4.14160647 18.74162343 4.4375 15.1875 C4.48970703 14.49462891 4.54191406 13.80175781 4.59570312 13.08789062 C4.72439819 11.39145563 4.86136184 9.69565137 5 8 C4.01 8 3.02 8 2 8 C2 9.32 2 10.64 2 12 C1.34 12 0.68 12 0 12 C-1.53166168 7.91556885 -0.63081652 4.20544343 0 0 Z " fill="#FA7A50" transform="translate(29,84)"/>
<path d="M0 0 C0.33 0 0.66 0 1 0 C1.06058594 0.83144531 1.12117188 1.66289063 1.18359375 2.51953125 C1.26738281 3.60621094 1.35117188 4.69289063 1.4375 5.8125 C1.55931641 7.43091797 1.55931641 7.43091797 1.68359375 9.08203125 C1.90212461 12.05989905 1.90212461 12.05989905 3 15 C2.01 15 1.02 15 0 15 C0 14.34 0 13.68 0 13 C-0.66 13 -1.32 13 -2 13 C-1.938125 14.11375 -1.87625 15.2275 -1.8125 16.375 C-1.874375 17.57125 -1.93625 18.7675 -2 20 C-2.99 20.66 -3.98 21.32 -5 22 C-5 21.34 -5 20.68 -5 20 C-5.66 20 -6.32 20 -7 20 C-7 21.32 -7 22.64 -7 24 C-6.01 24.33 -5.02 24.66 -4 25 C-4.99 25 -5.98 25 -7 25 C-7 25.66 -7 26.32 -7 27 C-6.01 26.67 -5.02 26.34 -4 26 C-4 26.66 -4 27.32 -4 28 C-4.99 28 -5.98 28 -7 28 C-7.33 28.66 -7.66 29.32 -8 30 C-8 29.34 -8 28.68 -8 28 C-8.66 28 -9.32 28 -10 28 C-10 28.66 -10 29.32 -10 30 C-10.99 30 -11.98 30 -13 30 C-13 21.75 -13 13.5 -13 5 C-12.67 5.66 -12.34 6.32 -12 7 C-11.34 7 -10.68 7 -10 7 C-10 9.64 -10 12.28 -10 15 C-10.66 15 -11.32 15 -12 15 C-12 15.66 -12 16.32 -12 17 C-11.34 17 -10.68 17 -10 17 C-10 17.99 -10 18.98 -10 20 C-9.34 20 -8.68 20 -8 20 C-8 16.37 -8 12.74 -8 9 C-7.67 9 -7.34 9 -7 9 C-7 12.3 -7 15.6 -7 19 C-6.34 19 -5.68 19 -5 19 C-5 17.68 -5 16.36 -5 15 C-4.34 15 -3.68 15 -3 15 C-3 13.02 -3 11.04 -3 9 C-2.67 9.99 -2.34 10.98 -2 12 C-1.34 12 -0.68 12 0 12 C0 8.04 0 4.08 0 0 Z " fill="#FA754D" transform="translate(89,90)"/>
<path d="M0 0 C0.33 0 0.66 0 1 0 C1.04898438 0.62648438 1.09796875 1.25296875 1.1484375 1.8984375 C1.22320312 2.71570313 1.29796875 3.53296875 1.375 4.375 C1.44460937 5.18710938 1.51421875 5.99921875 1.5859375 6.8359375 C1.82892588 9.20334191 1.82892588 9.20334191 4 11 C3.34 11.66 2.68 12.32 2 13 C1.01 13 0.02 13 -1 13 C-1 13.66 -1 14.32 -1 15 C-0.01 15.33 0.98 15.66 2 16 C1.34 16 0.68 16 0 16 C-0.33 17.32 -0.66 18.64 -1 20 C-0.34 20 0.32 20 1 20 C1.33 19.34 1.66 18.68 2 18 C2 19.32 2 20.64 2 22 C1.01 22 0.02 22 -1 22 C-0.67 23.32 -0.34 24.64 0 26 C0.66 26 1.32 26 2 26 C2.22383202 29.91706029 1.4890889 32.40866795 0 36 C-0.37593066 37.9924325 -0.71979545 39.9918674 -1 42 C-1.66 42 -2.32 42 -3 42 C-3.33 35.4 -3.66 28.8 -4 22 C-4.66 22.33 -5.32 22.66 -6 23 C-6 18.71 -6 14.42 -6 10 C-5.01 10.33 -4.02 10.66 -3 11 C-3 9.02 -3 7.04 -3 5 C-2.67 5 -2.34 5 -2 5 C-2 6.65 -2 8.3 -2 10 C-1.34 10 -0.68 10 0 10 C0 6.7 0 3.4 0 0 Z " fill="#F83D02" transform="translate(42,74)"/>
<path d="M0 0 C0.66 0 1.32 0 2 0 C2 0.66 2 1.32 2 2 C2.99 2 3.98 2 5 2 C5 4.31 5 6.62 5 9 C5.66 9 6.32 9 7 9 C7 9.99 7 10.98 7 12 C5.25595212 13.01034498 3.50450439 14.00792422 1.75 15 C0.77546875 15.556875 -0.1990625 16.11375 -1.203125 16.6875 C-4 18 -4 18 -8 18 C-8 17.01 -8 16.02 -8 15 C-6.02 15 -4.04 15 -2 15 C-2.99 14.67 -3.98 14.34 -5 14 C-5 11.69 -5 9.38 -5 7 C-4.34 7 -3.68 7 -3 7 C-0.64046906 4.64046906 -0.50858587 3.22104383 0 0 Z " fill="#FA7348" transform="translate(87,103)"/>
<path d="M0 0 C0 3.96 0 7.92 0 12 C-0.66 12 -1.32 12 -2 12 C-2.33 12.99 -2.66 13.98 -3 15 C-3.66 15 -4.32 15 -5 15 C-5 16.32 -5 17.64 -5 19 C-6.65 19.33 -8.3 19.66 -10 20 C-10 19.01 -10 18.02 -10 17 C-10.66 17 -11.32 17 -12 17 C-12 16.34 -12 15.68 -12 15 C-11.34 15 -10.68 15 -10 15 C-10 12.36 -10 9.72 -10 7 C-10.66 7 -11.32 7 -12 7 C-11.625 5.0625 -11.625 5.0625 -11 3 C-10.34 2.67 -9.68 2.34 -9 2 C-9 3.65 -9 5.3 -9 7 C-8.01 7 -7.02 7 -6 7 C-5.67 6.34 -5.34 5.68 -5 5 C-5 5.66 -5 6.32 -5 7 C-4.34 6.67 -3.68 6.34 -3 6 C-3 4.35 -3 2.7 -3 1 C-1 0 -1 0 0 0 Z " fill="#F94105" transform="translate(89,90)"/>
<path d="M0 0 C2 2 2 2 2.3125 4.9375 C2 8 2 8 0.8125 9.875 C-1.65507108 11.40659584 -3.14519831 11.42822025 -6 11 C-7.8125 9.875 -7.8125 9.875 -9 8 C-9.4375 5 -9.4375 5 -9 2 C-6.12524616 -1.3006433 -4.03854228 -1.38160657 0 0 Z " fill="#FA3303" transform="translate(496,96)"/>
<path d="M0 0 C0.33 0.66 0.66 1.32 1 2 C1.66 2 2.32 2 3 2 C3 2.66 3 3.32 3 4 C3.66 4 4.32 4 5 4 C5 2.68 5 1.36 5 0 C5.99 0 6.98 0 8 0 C8.05397335 2.4377963 8.09365616 4.87439685 8.125 7.3125 C8.15013672 8.34793945 8.15013672 8.34793945 8.17578125 9.40429688 C8.21217794 13.17135396 8.14378864 14.78431704 6 18 C-0.83318386 10.79192825 -0.83318386 10.79192825 -1.2421875 6.3984375 C-0.9699422 4.19953316 -0.59967896 2.13163193 0 0 Z " fill="#F94810" transform="translate(26,92)"/>
<path d="M0 0 C1.66014161 1.42297852 3.3197669 2.84656456 4.9765625 4.2734375 C6.31528821 5.41574785 7.6642017 6.54623537 9.0234375 7.6640625 C9.65507813 8.18742187 10.28671875 8.71078125 10.9375 9.25 C11.52402344 9.72953125 12.11054687 10.2090625 12.71484375 10.703125 C14 12 14 12 14 14 C10.37 13.67 6.74 13.34 3 13 C3 12.34 3 11.68 3 11 C2.01 10.67 1.02 10.34 0 10 C0 6.7 0 3.4 0 0 Z " fill="#FA8563" transform="translate(51,110)"/>
<path d="M0 0 C2 2 2 2 2.1953125 4.8203125 C2.16050781 6.45613281 2.16050781 6.45613281 2.125 8.125 C2.10695313 9.22070312 2.08890625 10.31640625 2.0703125 11.4453125 C2.04710937 12.28835937 2.02390625 13.13140625 2 14 C3.65 14 5.3 14 7 14 C6.34 14.66 5.68 15.32 5 16 C0.42243641 15.68789339 -3.00574046 14.18733261 -7 12 C-7 10.02 -7 8.04 -7 6 C-6.34 6 -5.68 6 -5 6 C-5 6.99 -5 7.98 -5 9 C-3.35 9 -1.7 9 0 9 C-0.99 8.67 -1.98 8.34 -3 8 C-3 5.69 -3 3.38 -3 1 C-2.67 1.99 -2.34 2.98 -2 4 C-1.34 4 -0.68 4 0 4 C0 2.68 0 1.36 0 0 Z " fill="#F83E0B" transform="translate(49,106)"/>
<path d="M0 0 C0.66 0.33 1.32 0.66 2 1 C2.25 3.3125 2.25 3.3125 2 6 C0.68212715 7.02028865 -0.65210653 8.01971384 -2 9 C-2.8042208 11.59855733 -2.8042208 11.59855733 -3 14 C-4.98 14 -6.96 14 -9 14 C-9.5 11.4375 -9.5 11.4375 -9 8 C-6.58224788 5.33885002 -3.84673787 3.18470581 -1 1 C-0.67 0.67 -0.34 0.34 0 0 Z " fill="#FA5F26" transform="translate(89,83)"/>
<path d="M0 0 C0.33 0 0.66 0 1 0 C1 1.65 1 3.3 1 5 C1.66 5 2.32 5 3 5 C3 5.99 3 6.98 3 8 C2.34 8 1.68 8 1 8 C1 8.66 1 9.32 1 10 C1.66 10 2.32 10 3 10 C3.33 10.66 3.66 11.32 4 12 C4.66 11.67 5.32 11.34 6 11 C7.60725635 14.21451269 7.05748185 17.43612536 7 21 C2.86607808 19.26305801 1.6095439 17.33706441 -0.24609375 13.37109375 C-1.53816512 9.30742886 -1.50088288 5.21234293 -1 1 C-0.67 0.67 -0.34 0.34 0 0 Z " fill="#F94303" transform="translate(53,84)"/>
<path d="M0 0 C0.33 0 0.66 0 1 0 C1 7.92 1 15.84 1 24 C0.34 24 -0.32 24 -1 24 C-1 20.37 -1 16.74 -1 13 C-1.66 13 -2.32 13 -3 13 C-3 12.34 -3 11.68 -3 11 C-2.34 11 -1.68 11 -1 11 C-1.33 10.01 -1.66 9.02 -2 8 C-4.01508358 7.26676204 -4.01508358 7.26676204 -6 7 C-5.02433888 5.83040013 -4.044375 4.66438823 -3.0625 3.5 C-2.51722656 2.8503125 -1.97195312 2.200625 -1.41015625 1.53125 C-0.71212891 0.77328125 -0.71212891 0.77328125 0 0 Z " fill="#F84008" transform="translate(75,96)"/>
<path d="M0 0 C0.33 0 0.66 0 1 0 C1.04898438 0.62648438 1.09796875 1.25296875 1.1484375 1.8984375 C1.22320312 2.71570313 1.29796875 3.53296875 1.375 4.375 C1.44460937 5.18710938 1.51421875 5.99921875 1.5859375 6.8359375 C1.82892588 9.20334191 1.82892588 9.20334191 4 11 C3.34 11.66 2.68 12.32 2 13 C1.01 13 0.02 13 -1 13 C-1.33 13.66 -1.66 14.32 -2 15 C-2.33 14.67 -2.66 14.34 -3 14 C-3.12375 15.299375 -3.2475 16.59875 -3.375 17.9375 C-3.5859375 20.15234375 -3.5859375 20.15234375 -4 22 C-4.66 22.33 -5.32 22.66 -6 23 C-6 18.71 -6 14.42 -6 10 C-5.01 10.33 -4.02 10.66 -3 11 C-3 9.02 -3 7.04 -3 5 C-2.67 5 -2.34 5 -2 5 C-2 6.65 -2 8.3 -2 10 C-1.34 10 -0.68 10 0 10 C0 6.7 0 3.4 0 0 Z " fill="#F94809" transform="translate(42,74)"/>
<path d="M0 0 C0.33 0 0.66 0 1 0 C1 1.98 1 3.96 1 6 C0.34 6 -0.32 6 -1 6 C-1 6.66 -1 7.32 -1 8 C-0.34 8 0.32 8 1 8 C0.67 9.32 0.34 10.64 0 12 C0 11.01 0 10.02 0 9 C-0.99 9 -1.98 9 -3 9 C-3.33 11.31 -3.66 13.62 -4 16 C-4.66 16 -5.32 16 -6 16 C-6.05416188 14.39620659 -6.09286638 12.79188594 -6.125 11.1875 C-6.14820312 10.29417969 -6.17140625 9.40085937 -6.1953125 8.48046875 C-6 6 -6 6 -4 3 C-2.68 3 -1.36 3 0 3 C0 2.01 0 1.02 0 0 Z " fill="#FB825C" transform="translate(73,101)"/>
<path d="M0 0 C0.33 0 0.66 0 1 0 C1.06058594 0.83144531 1.12117188 1.66289063 1.18359375 2.51953125 C1.26738281 3.60621094 1.35117188 4.69289063 1.4375 5.8125 C1.55931641 7.43091797 1.55931641 7.43091797 1.68359375 9.08203125 C1.90212461 12.05989905 1.90212461 12.05989905 3 15 C2.01 15 1.02 15 0 15 C0 14.34 0 13.68 0 13 C-0.66 13 -1.32 13 -2 13 C-1.938125 14.11375 -1.87625 15.2275 -1.8125 16.375 C-1.874375 17.57125 -1.93625 18.7675 -2 20 C-2.99 20.66 -3.98 21.32 -5 22 C-5 21.34 -5 20.68 -5 20 C-5.99 20 -6.98 20 -8 20 C-8 16.37 -8 12.74 -8 9 C-7.67 9 -7.34 9 -7 9 C-7 12.3 -7 15.6 -7 19 C-6.34 19 -5.68 19 -5 19 C-5 17.68 -5 16.36 -5 15 C-4.34 15 -3.68 15 -3 15 C-3 13.02 -3 11.04 -3 9 C-2.67 9.99 -2.34 10.98 -2 12 C-1.34 12 -0.68 12 0 12 C0 8.04 0 4.08 0 0 Z " fill="#FB8C68" transform="translate(89,90)"/>
<path d="M0 0 C0.99 0 1.98 0 3 0 C3 1.65 3 3.3 3 5 C3.66 5 4.32 5 5 5 C5.33 4.01 5.66 3.02 6 2 C6.33 3.98 6.66 5.96 7 8 C5.35 8 3.7 8 2 8 C2 9.32 2 10.64 2 12 C1.34 12 0.68 12 0 12 C-1.53166168 7.91556885 -0.63081652 4.20544343 0 0 Z " fill="#FB885D" transform="translate(29,84)"/>
<path d="M0 0 C0.33 0.66 0.66 1.32 1 2 C1.66 2 2.32 2 3 2 C3 2.66 3 3.32 3 4 C3.66 4 4.32 4 5 4 C5 2.68 5 1.36 5 0 C5.99 0 6.98 0 8 0 C8 4.95 8 9.9 8 15 C7.67 15 7.34 15 7 15 C7 12.36 7 9.72 7 7 C6.34 7 5.68 7 5 7 C5 6.34 5 5.68 5 5 C3.35 5.33 1.7 5.66 0 6 C0 4.02 0 2.04 0 0 Z " fill="#F93B01" transform="translate(26,92)"/>
<path d="M0 0 C0.33 0.99 0.66 1.98 1 3 C1.66 3 2.32 3 3 3 C3 3.99 3 4.98 3 6 C-0.96 7.98 -0.96 7.98 -5 10 C-5 7.69 -5 5.38 -5 3 C-4.67 3.66 -4.34 4.32 -4 5 C-3.34 3.68 -2.68 2.36 -2 1 C-1.67 1.33 -1.34 1.66 -1 2 C-0.67 1.34 -0.34 0.68 0 0 Z " fill="#FA815C" transform="translate(91,109)"/>
<path d="M0 0 C0.99 0 1.98 0 3 0 C4.125 3.75 4.125 3.75 3 6 C2.34 6 1.68 6 1 6 C1 7.65 1 9.3 1 11 C0.01 11.33 -0.98 11.66 -2 12 C-2.33 10.35 -2.66 8.7 -3 7 C-2.34 7 -1.68 7 -1 7 C-0.67 4.69 -0.34 2.38 0 0 Z " fill="#F95F34" transform="translate(70,110)"/>
<path d="M0 0 C0.66 0 1.32 0 2 0 C2 4.95 2 9.9 2 15 C0.68 14.34 -0.64 13.68 -2 13 C-2 12.01 -2 11.02 -2 10 C-1.34 10 -0.68 10 0 10 C0 6.7 0 3.4 0 0 Z " fill="#F94C1B" transform="translate(36,99)"/>
<path d="M0 0 C0.66 0 1.32 0 2 0 C2 0.66 2 1.32 2 2 C2.66 2 3.32 2 4 2 C4.1875 5.375 4.1875 5.375 4 9 C1 11 1 11 -3 11 C-3 10.01 -3 9.02 -3 8 C-1.02 8 0.96 8 3 8 C2.01 7.67 1.02 7.34 0 7 C0 4.69 0 2.38 0 0 Z " fill="#F84B1A" transform="translate(82,110)"/>
<path d="M0 0 C2.97 0.495 2.97 0.495 6 1 C6 1.66 6 2.32 6 3 C6.99 2.67 7.98 2.34 9 2 C9 2.66 9 3.32 9 4 C8.01 4 7.02 4 6 4 C5.67 4.66 5.34 5.32 5 6 C5 5.34 5 4.68 5 4 C4.34 4 3.68 4 3 4 C3 4.66 3 5.32 3 6 C2.01 6 1.02 6 0 6 C0 4.02 0 2.04 0 0 Z " fill="#FA8360" transform="translate(76,114)"/>
<path d="M0 0 C0.66 0 1.32 0 2 0 C2 0.99 2 1.98 2 3 C3.65 3 5.3 3 7 3 C7 4.98 7 6.96 7 9 C4.69 8.01 2.38 7.02 0 6 C0 4.02 0 2.04 0 0 Z " fill="#F95529" transform="translate(42,112)"/>
<path d="M0 0 C0.33 0 0.66 0 1 0 C1 2.97 1 5.94 1 9 C1.66 9.33 2.32 9.66 3 10 C2.34 10 1.68 10 1 10 C1 10.66 1 11.32 1 12 C1.66 12 2.32 12 3 12 C2.625 13.9375 2.625 13.9375 2 16 C1.34 16.33 0.68 16.66 0 17 C0 14.36 0 11.72 0 9 C-0.66 9 -1.32 9 -2 9 C-2 7.68 -2 6.36 -2 5 C-1.34 5 -0.68 5 0 5 C0 3.35 0 1.7 0 0 Z " fill="#FA774C" transform="translate(96,95)"/>
<path d="M0 0 C0.33 0 0.66 0 1 0 C1 9.24 1 18.48 1 28 C0.67 28 0.34 28 0 28 C0 22.72 0 17.44 0 12 C-0.66 12 -1.32 12 -2 12 C-1.34 8.04 -0.68 4.08 0 0 Z " fill="#FB8660" transform="translate(38,87)"/>
<path d="M0 0 C0.33 0.66 0.66 1.32 1 2 C2.65 2 4.3 2 6 2 C6.33 2.99 6.66 3.98 7 5 C6.34 5 5.68 5 5 5 C5 4.34 5 3.68 5 3 C4.34 3 3.68 3 3 3 C3 6.3 3 9.6 3 13 C2.01 12.67 1.02 12.34 0 12 C0.66 12 1.32 12 2 12 C2 11.34 2 10.68 2 10 C1.34 10 0.68 10 0 10 C0 9.34 0 8.68 0 8 C0.66 8 1.32 8 2 8 C2 7.01 2 6.02 2 5 C1.34 5 0.68 5 0 5 C0 3.35 0 1.7 0 0 Z " fill="#FB8255" transform="translate(54,84)"/>
<path d="M0 0 C1.98 0 3.96 0 6 0 C6.66 1.32 7.32 2.64 8 4 C4.37 3.67 0.74 3.34 -3 3 C-2.01 2.67 -1.02 2.34 0 2 C0 1.34 0 0.68 0 0 Z " fill="#F96941" transform="translate(57,120)"/>
<path d="M0 0 C0.33 0.66 0.66 1.32 1 2 C2.32 2 3.64 2 5 2 C5 3.98 5 5.96 5 8 C3.35 8 1.7 8 0 8 C0 5.36 0 2.72 0 0 Z " fill="#FB814F" transform="translate(34,77)"/>
<path d="M0 0 C0.33 0.66 0.66 1.32 1 2 C1.66 2 2.32 2 3 2 C3 4.64 3 7.28 3 10 C2.34 10 1.68 10 1 10 C0.67 10.99 0.34 11.98 0 13 C0 8.71 0 4.42 0 0 Z " fill="#FB7F56" transform="translate(76,95)"/>
<path d="M0 0 C0.33 0 0.66 0 1 0 C1.19477739 1.62414378 1.38059458 3.24936423 1.5625 4.875 C1.66691406 5.77992187 1.77132812 6.68484375 1.87890625 7.6171875 C2 10 2 10 1 12 C0.34 12 -0.32 12 -1 12 C-1.02698189 10.37509046 -1.04638757 8.75005367 -1.0625 7.125 C-1.07410156 6.22007813 -1.08570312 5.31515625 -1.09765625 4.3828125 C-1 2 -1 2 0 0 Z " fill="#FA7249" transform="translate(68,105)"/>
<path d="M0 0 C0.66 0 1.32 0 2 0 C2.33 2.64 2.66 5.28 3 8 C2.01 8.66 1.02 9.32 0 10 C-1.125 2.25 -1.125 2.25 0 0 Z " fill="#FA6F40" transform="translate(102,95)"/>
<path d="M0 0 C2.97 0.495 2.97 0.495 6 1 C6 2.65 6 4.3 6 6 C3.37812506 4.95125002 2.20628639 4.35068687 0.75 1.875 C0.5025 1.25625 0.255 0.6375 0 0 Z " fill="#F9521B" transform="translate(54,99)"/>
<path d="M0 0 C0 2.97 0 5.94 0 9 C-0.66 8.67 -1.32 8.34 -2 8 C-2.73075648 5.6859378 -3.40138258 3.35171131 -4 1 C-2 0 -2 0 0 0 Z " fill="#FA7040" transform="translate(26,91)"/>
<path d="M0 0 C0.33 0 0.66 0 1 0 C1.17942163 3.94727588 1.09350689 6.5980513 -1 10 C-1.99 10 -2.98 10 -4 10 C-4 9.01 -4 8.02 -4 7 C-3.34 7 -2.68 7 -2 7 C-2 5.35 -2 3.7 -2 2 C-1.34 2 -0.68 2 0 2 C0 1.34 0 0.68 0 0 Z " fill="#FA8462" transform="translate(73,114)"/>
<path d="M0 0 C0.93423645 3.01031744 1.04449911 3.86650268 0 7 C-0.99 6.67 -1.98 6.34 -3 6 C-3 4.68 -3 3.36 -3 2 C-2.01 2 -1.02 2 0 2 C0 1.34 0 0.68 0 0 Z " fill="#FA662B" transform="translate(46,77)"/>
<path d="M0 0 C1.32 1.32 2.64 2.64 4 4 C3.34 5.65 2.68 7.3 2 9 C1.67 9 1.34 9 1 9 C0.67 6.03 0.34 3.06 0 0 Z " fill="#F96338" transform="translate(51,110)"/>
</svg>
